Coordinates
version=1
nRows=9
nColumns=36
inDegrees=yes

Units are S.I. units (second, meters, Newtons, ...)
If the header above contains a line with 'inDegrees', this indicates whether rotational values are in degrees (yes) or radians (no).

endheader
time	pelvis_tilt	pelvis_list	pelvis_rotation	pelvis_tx	pelvis_ty	pelvis_tz	hip_flexion_r	hip_adduction_r	hip_rotation_r	knee_angle_r	knee_angle_r_beta	ankle_angle_r	subtalar_angle_r	mtp_angle_r	hip_flexion_l	hip_adduction_l	hip_rotation_l	knee_angle_l	knee_angle_l_beta	ankle_angle_l	subtalar_angle_l	mtp_angle_l	lumbar_extension	lumbar_bending	lumbar_rotation	arm_flex_r	arm_add_r	arm_rot_r	elbow_flex_r	pro_sup_r	arm_flex_l	arm_add_l	arm_rot_l	elbow_flex_l	pro_sup_l
      2.02000000	    -15.34685861	     -2.60063831	      2.99331273	     -0.33827733	      0.80373047	     -0.56160171	     67.00694136	      2.01558640	     -0.72656084	     83.51936457	      1.45768790	     31.05293957	    -16.13385690	     -7.49525377	     68.37016508	     -4.14504009	      1.92658255	     83.37158396	      1.45510864	     31.74280759	     -8.38581592	     -7.49525377	    -25.74511237	      1.35319891	     -1.78525443	     36.33640583	    -15.35668605	      2.11927600	    107.88817090	    109.09237842	     21.82868081	    -24.07878356	      2.48234450	     95.18798675	     96.00507775
      2.03000000	    -14.79260260	     -2.46750914	      3.23216626	     -0.33323980	      0.80418051	     -0.56210444	     66.16907759	      2.00484755	     -0.50607870	     83.90700480	      1.46445350	     31.46017475	    -16.45076051	     -7.49528556	     67.51303118	     -3.79760659	      2.01509433	     83.61348106	      1.45933054	     32.07363517	     -8.54257824	     -7.49528556	    -25.50915716	      1.06417373	     -1.98442537	     36.36958972	    -16.53055783	      3.09521186	    108.23686170	    109.25667578	     21.74783627	    -24.72463732	      3.53756105	     94.91923683	     96.03974088
      2.04000000	    -14.25496479	     -2.29461988	      3.38375493	     -0.32820294	      0.80564757	     -0.56232267	     65.20956847	      2.10698743	     -0.18630447	     84.02558026	      1.46652303	     31.80063325	    -16.76115534	     -7.49531932	     66.51409501	     -3.52403504	      2.03859792	     83.62078339	      1.45945799	     32.34456115	     -8.67087979	     -7.49531932	    -25.05377814	      0.81559264	     -2.27295925	     37.05761557	    -18.01172487	      4.35911997	    109.32202335	    109.49676740	     21.73258160	    -25.94157439	      4.44664860	     96.18421059	     96.27766082
      2.05000000	    -13.81456725	     -2.10937494	      3.53856853	     -0.32316929	      0.80801097	     -0.56255911	     64.22734784	      2.16765223	      0.12280312	     83.94195007	      1.46506341	     32.04178603	    -17.04354858	     -7.49535250	     65.49865050	     -3.24633601	      2.03634605	     83.43344874	      1.45618839	     32.54491120	     -8.75221655	     -7.49535250	    -24.37453199	      0.58347612	     -2.66523828	     38.36490319	    -19.83004540	      5.68612616	    111.01409669	    109.77409960	     21.84420257	    -27.52587938	      4.81546539	     98.81946623	     96.66445048
      2.06000000	    -13.16411251	     -1.90409146	      3.68205254	     -0.31808077	      0.81190152	     -0.56304849	     62.87110909	      2.14024343	      0.40251677	     83.62591835	      1.45954762	     32.20335390	    -17.18053359	     -7.49551013	     64.07393319	     -2.95051049	      2.02632465	     82.98756602	      1.44840627	     32.74437791	     -8.84228468	     -7.49551013	    -23.92897017	      0.41463294	     -3.95658401	     41.29009836	    -21.27362365	      7.90704008	    112.15587552	    110.23316250	     21.18211151	    -29.74953752	      3.12027751	    103.06659497	     97.38131252
      2.07000000	    -12.93894561	     -1.84734790	      3.81613743	     -0.31301015	      0.81618935	     -0.56336823	     61.86480777	      2.12235425	      0.51563016	     83.05727758	      1.44962296	     32.24331263	    -17.25027192	     -7.49556668	     63.05623277	     -2.75878162	      2.12877579	     82.36442689	      1.43753044	     32.77517454	     -8.89644313	     -7.49556668	    -22.80626251	      0.26493126	     -4.13023597	     43.94635060	    -23.81158495	      9.08603028	    114.35697283	    110.49941786	     22.43303573	    -31.85669400	      3.05274574	    106.36505443	     97.85973174
      2.08000000	    -12.51635852	     -1.77653719	      3.93294112	     -0.30781242	      0.82190413	     -0.56345999	     60.49440628	      2.15593920	      0.64676193	     82.22897900	      1.43516642	     32.18375340	    -17.41870688	     -7.49563208	     61.66923934	     -2.62386617	      2.19804517	     81.48742342	      1.42222384	     32.75348762	     -8.94441643	     -7.49563208	    -21.77045195	      0.13442675	     -4.30402778	     47.59328900	    -26.49154466	     10.44983401	    115.87875720	    110.65093669	     24.46286542	    -34.08294363	      2.73105215	    109.47725419	     98.27082273
      2.09000000	    -12.04505724	     -1.69777753	      4.03574524	     -0.30242879	      0.82878631	     -0.56336345	     58.92942275	      2.23162426	      0.79635437	     81.14803872	      1.41630046	     31.93550013	    -17.77021054	     -7.49573843	     60.09974792	     -2.53035849	      2.21848778	     80.38784554	      1.40303258	     32.63014811	     -9.01975615	     -7.49573843	    -20.68819340	      0.02465331	     -4.49929028	     52.14766237	    -29.19577151	     12.17992932	    116.69408356	    110.58991120	     27.19410339	    -36.51568004	      2.21779008	    112.21906781	     98.47238361
      2.10000000	    -11.70773837	     -1.55128115	      4.12836255	     -0.29685064	      0.83664691	     -0.56319809	     57.38690049	      2.25701476	      1.04305691	     79.85613012	      1.39375240	     31.61266426	    -17.98722529	     -7.49582122	     58.50840042	     -2.46276537	      2.08419438	     78.99688781	      1.37875579	     32.39527898	     -9.06358665	     -7.49582122	    -19.38775747	     -0.17638365	     -4.58111802	     57.30191657	    -31.86747563	     13.88526758	    117.14789985	    110.47206087	     30.82269505	    -39.08983558	      2.01298306	    114.52028255	     98.47272796
